<svg width="38" height="38" viewBox="0 0 38 38" fill="none" xmlns="http://www.w3.org/2000/svg">
<g clip-path="url(#clip0_78_2)">
<g clip-path="url(#clip1_78_2)">
<path d="M19.0014 0C8.49956 0 -7.42237e-05 8.49837 4.86126e-10 19.0014C4.86126e-10 29.5034 8.49845 38.0028 19.0014 38.0028C29.5032 38.0028 38.0029 29.5044 38.0028 19.0014C38.0028 8.49934 29.5043 0 19.0014 0ZM30.8629 30.8629C24.3225 37.4034 13.6803 37.4034 7.13992 30.8629V30.8629C0.599509 24.3225 0.599509 13.6804 7.13992 7.13992C13.6958 0.58407 24.3065 0.583625 30.8629 7.14C37.4033 13.6804 37.4033 24.3224 30.8629 30.8629Z" fill="#484848"/>
<path d="M30.1389 10.7554C28.3915 9.00794 25.5552 9.01611 23.8182 10.7781L16.8856 17.8108L14.1622 15.0874C12.4217 13.3469 9.60477 13.3466 7.86407 15.0874C6.12767 16.8237 6.12767 19.649 7.86407 21.3855C12.3761 25.8974 11.0852 24.6095 13.6861 27.2088C15.4755 28.9973 18.3864 28.9964 20.1747 27.2079C22.6578 24.7249 30.1617 17.0308 30.1617 17.0308C31.873 15.2944 31.8628 12.4793 30.1389 10.7554ZM28.5758 15.4677C20.1924 23.9736 18.6002 25.6334 18.6002 25.6334C17.6795 26.5542 16.1811 26.5543 15.2601 25.6339C15.2601 25.6339 9.82849 20.2009 9.43859 19.811C8.57039 18.9428 8.57039 17.5301 9.43859 16.6619C10.3089 15.7915 11.7173 15.7916 12.5876 16.6619L16.1041 20.1782C16.5412 20.6153 17.2505 20.6125 17.6842 20.1726L25.4039 12.3414C26.2714 11.4614 27.6897 11.4553 28.5643 12.33C29.4263 13.1919 29.4315 14.5995 28.5758 15.4677Z" fill="#484848"/>
</g>
</g>
<defs>
<clipPath id="clip0_78_2">
<rect width="38.0028" height="38.0028" fill="white"/>
</clipPath>
<clipPath id="clip1_78_2">
<rect width="38.0028" height="38.0028" fill="white"/>
</clipPath>
</defs>
</svg>
