<svg width="32" height="32" viewBox="0 0 32 32" fill="none" xmlns="http://www.w3.org/2000/svg">
<rect width="32" height="32" rx="16" fill="white"/>
<path fill-rule="evenodd" clip-rule="evenodd" d="M16 5C18.7848 5 21.4555 6.0867 23.4246 8.02104C25.3938 9.95538 26.5 12.5789 26.5 15.3145C26.5 18.8375 24.5447 21.7209 22.4843 23.7895C21.455 24.8119 20.3317 25.7388 19.129 26.5584L18.632 26.8908L18.3987 27.0432L17.9588 27.3182L17.5668 27.5532L17.0815 27.8305C16.7521 28.0152 16.3793 28.1124 16 28.1124C15.6207 28.1124 15.2479 28.0152 14.9185 27.8305L14.4332 27.5532L13.8265 27.1864L13.6025 27.0432L13.1242 26.7303C11.8266 25.8679 10.6181 24.883 9.51567 23.7895C7.45533 21.7198 5.5 18.8375 5.5 15.3145C5.5 12.5789 6.60625 9.95538 8.57538 8.02104C10.5445 6.0867 13.2152 5 16 5ZM19.5933 11.8568L14.6408 16.7207L12.5782 14.6945C12.3593 14.4796 12.0624 14.3589 11.7529 14.359C11.4434 14.3591 11.1467 14.48 10.9279 14.695C10.7092 14.9101 10.5863 15.2017 10.5864 15.5057C10.5865 15.8097 10.7096 16.1012 10.9285 16.3161L13.7332 19.0712C13.8523 19.1884 13.9938 19.2813 14.1496 19.3447C14.3053 19.4081 14.4723 19.4407 14.6408 19.4407C14.8094 19.4407 14.9763 19.4081 15.1321 19.3447C15.2878 19.2813 15.4293 19.1884 15.5485 19.0712L21.2418 13.4774C21.4544 13.2612 21.5719 12.9717 21.5693 12.6712C21.5666 12.3707 21.4439 12.0833 21.2276 11.8708C21.0113 11.6583 20.7187 11.5378 20.4128 11.5352C20.1069 11.5326 19.8134 11.6481 19.5933 11.8568Z" fill="#1A1A1A"/>
</svg>
