<svg width="166" height="77" viewBox="0 0 166 77" fill="none" xmlns="http://www.w3.org/2000/svg">
<path d="M4.361 46V11.21H7.791V46H4.361ZM37.2913 46H33.9593V31.741C33.9593 28.7357 33.5183 26.547 32.6363 25.175C31.7543 23.7703 30.366 23.068 28.4713 23.068C27.1646 23.068 25.8743 23.3947 24.6003 24.048C23.3263 24.6687 22.1993 25.5343 21.2193 26.645C20.272 27.723 19.586 28.9643 19.1613 30.369V46H15.8293V20.471H18.8673V26.253C19.5533 25.0117 20.4516 23.9337 21.5623 23.019C22.673 22.0717 23.9306 21.3367 25.3353 20.814C26.74 20.2913 28.1936 20.03 29.6963 20.03C31.101 20.03 32.2933 20.2913 33.2733 20.814C34.2533 21.3367 35.0373 22.088 35.6253 23.068C36.2133 24.0153 36.638 25.175 36.8993 26.547C37.1606 27.8863 37.2913 29.389 37.2913 31.055V46ZM70.3667 17.139H59.2437V46H52.5307V17.139H41.4077V11.21H70.3667V17.139ZM74.0486 46V20.324H80.6146V46H74.0486ZM74.0486 16.747V10.23H80.6146V16.747H74.0486ZM126.424 46H119.858V31.594C119.858 29.5687 119.498 28.0823 118.78 27.135C118.094 26.155 117.13 25.665 115.889 25.665C114.615 25.665 113.39 26.1713 112.214 27.184C111.07 28.164 110.254 29.4543 109.764 31.055V46H103.198V31.594C103.198 29.536 102.838 28.0333 102.12 27.086C101.434 26.1387 100.47 25.665 99.2288 25.665C97.9548 25.665 96.7298 26.155 95.5538 27.135C94.4105 28.115 93.5938 29.4053 93.1038 31.006V46H86.5378V20.324H92.4668V25.077C93.4468 23.411 94.7535 22.137 96.3868 21.255C98.0202 20.3403 99.8985 19.883 102.022 19.883C104.145 19.883 105.795 20.4057 106.971 21.451C108.179 22.4963 108.947 23.7867 109.274 25.322C110.319 23.558 111.642 22.2187 113.243 21.304C114.876 20.3567 116.705 19.883 118.731 19.883C120.331 19.883 121.622 20.177 122.602 20.765C123.614 21.3203 124.398 22.088 124.954 23.068C125.509 24.0153 125.885 25.0933 126.081 26.302C126.309 27.5107 126.424 28.7357 126.424 29.977V46ZM144.047 46.49C141.989 46.49 140.127 46.147 138.461 45.461C136.795 44.7423 135.374 43.7787 134.198 42.57C133.022 41.3287 132.108 39.924 131.454 38.356C130.834 36.7553 130.523 35.073 130.523 33.309C130.523 30.859 131.062 28.6213 132.14 26.596C133.251 24.5707 134.819 22.9537 136.844 21.745C138.902 20.5037 141.32 19.883 144.096 19.883C146.906 19.883 149.307 20.5037 151.299 21.745C153.292 22.9537 154.811 24.5707 155.856 26.596C156.934 28.5887 157.473 30.7447 157.473 33.064C157.473 33.456 157.457 33.8643 157.424 34.289C157.392 34.681 157.359 35.0077 157.326 35.269H137.481C137.612 36.5757 137.988 37.719 138.608 38.699C139.262 39.679 140.078 40.4303 141.058 40.953C142.071 41.443 143.149 41.688 144.292 41.688C145.599 41.688 146.824 41.3777 147.967 40.757C149.143 40.1037 149.944 39.2543 150.368 38.209L156.003 39.777C155.383 41.0837 154.484 42.2433 153.308 43.256C152.165 44.2687 150.809 45.069 149.241 45.657C147.673 46.2123 145.942 46.49 144.047 46.49ZM137.334 31.104H150.76C150.63 29.7973 150.254 28.6703 149.633 27.723C149.045 26.743 148.261 25.9917 147.281 25.469C146.301 24.9137 145.207 24.636 143.998 24.636C142.822 24.636 141.744 24.9137 140.764 25.469C139.817 25.9917 139.033 26.743 138.412 27.723C137.824 28.6703 137.465 29.7973 137.334 31.104Z" fill="#1A1A1A"/>
<path d="M5.69091 58.0364H7.70909L12.4545 69.6273H12.6182L17.3636 58.0364H19.3818V72H17.8V61.3909H17.6636L13.3 72H11.7727L7.40909 61.3909H7.27273V72H5.69091V58.0364ZM25.6358 72.2455C24.9722 72.2455 24.3699 72.1205 23.829 71.8705C23.2881 71.6159 22.8585 71.25 22.5403 70.7727C22.2222 70.2909 22.0631 69.7091 22.0631 69.0273C22.0631 68.4273 22.1813 67.9409 22.4176 67.5682C22.654 67.1909 22.9699 66.8955 23.3653 66.6818C23.7608 66.4682 24.1972 66.3091 24.6744 66.2045C25.1563 66.0955 25.6403 66.0091 26.1267 65.9455C26.7631 65.8636 27.279 65.8023 27.6744 65.7614C28.0744 65.7159 28.3653 65.6409 28.5472 65.5364C28.7335 65.4318 28.8267 65.25 28.8267 64.9909V64.9364C28.8267 64.2636 28.6426 63.7409 28.2744 63.3682C27.9108 62.9955 27.3585 62.8091 26.6176 62.8091C25.8494 62.8091 25.2472 62.9773 24.8108 63.3136C24.3744 63.65 24.0676 64.0091 23.8903 64.3909L22.3631 63.8455C22.6358 63.2091 22.9994 62.7136 23.454 62.3591C23.9131 62 24.4131 61.75 24.954 61.6091C25.4994 61.4636 26.0358 61.3909 26.5631 61.3909C26.8994 61.3909 27.2858 61.4318 27.7222 61.5136C28.1631 61.5909 28.5881 61.7523 28.9972 61.9977C29.4108 62.2432 29.754 62.6136 30.0267 63.1091C30.2994 63.6045 30.4358 64.2682 30.4358 65.1V72H28.8267V70.5818H28.7449C28.6358 70.8091 28.454 71.0523 28.1994 71.3114C27.9449 71.5705 27.6063 71.7909 27.1835 71.9727C26.7608 72.1545 26.2449 72.2455 25.6358 72.2455ZM25.8813 70.8C26.5176 70.8 27.054 70.675 27.4903 70.425C27.9313 70.175 28.2631 69.8523 28.4858 69.4568C28.7131 69.0614 28.8267 68.6455 28.8267 68.2091V66.7364C28.7585 66.8182 28.6085 66.8932 28.3767 66.9614C28.1494 67.025 27.8858 67.0818 27.5858 67.1318C27.2903 67.1773 27.0017 67.2182 26.7199 67.2545C26.4426 67.2864 26.2176 67.3136 26.0449 67.3364C25.6267 67.3909 25.2358 67.4795 24.8722 67.6023C24.5131 67.7205 24.2222 67.9 23.9994 68.1409C23.7813 68.3773 23.6722 68.7 23.6722 69.1091C23.6722 69.6682 23.879 70.0909 24.2926 70.3773C24.7108 70.6591 25.2403 70.8 25.8813 70.8ZM34.8727 68.1818L34.8455 66.1909H35.1727L39.7545 61.5273H41.7455L36.8636 66.4636H36.7273L34.8727 68.1818ZM33.3727 72V58.0364H34.9818V72H33.3727ZM40.0273 72L35.9364 66.8182L37.0818 65.7L42.0727 72H40.0273ZM47.7761 72.2182C46.767 72.2182 45.8966 71.9955 45.1648 71.55C44.4375 71.1 43.8761 70.4727 43.4807 69.6682C43.0898 68.8591 42.8943 67.9182 42.8943 66.8455C42.8943 65.7727 43.0898 64.8273 43.4807 64.0091C43.8761 63.1864 44.4261 62.5455 45.1307 62.0864C45.8398 61.6227 46.667 61.3909 47.6125 61.3909C48.158 61.3909 48.6966 61.4818 49.2284 61.6636C49.7602 61.8455 50.2443 62.1409 50.6807 62.55C51.117 62.9545 51.4648 63.4909 51.7239 64.1591C51.983 64.8273 52.1125 65.65 52.1125 66.6273V67.3091H44.0398V65.9182H50.4761C50.4761 65.3273 50.358 64.8 50.1216 64.3364C49.8898 63.8727 49.558 63.5068 49.1261 63.2386C48.6989 62.9705 48.1943 62.8364 47.6125 62.8364C46.9716 62.8364 46.417 62.9955 45.9489 63.3136C45.4852 63.6273 45.1284 64.0364 44.8784 64.5409C44.6284 65.0455 44.5034 65.5864 44.5034 66.1636V67.0909C44.5034 67.8818 44.6398 68.5523 44.9125 69.1023C45.1898 69.6477 45.5739 70.0636 46.0648 70.35C46.5557 70.6318 47.1261 70.7727 47.7761 70.7727C48.1989 70.7727 48.5807 70.7136 48.9216 70.5955C49.267 70.4727 49.5648 70.2909 49.8148 70.05C50.0648 69.8045 50.258 69.5 50.3943 69.1364L51.9489 69.5727C51.7852 70.1 51.5102 70.5636 51.1239 70.9636C50.7375 71.3591 50.2602 71.6682 49.692 71.8909C49.1239 72.1091 48.4852 72.2182 47.7761 72.2182ZM58.9784 58.0364H60.9148L64.7875 64.5545H64.9511L68.8239 58.0364H70.7602L65.7148 66.2455V72H64.0239V66.2455L58.9784 58.0364ZM75.5023 72.2182C74.5568 72.2182 73.7273 71.9932 73.0136 71.5432C72.3045 71.0932 71.75 70.4636 71.35 69.6545C70.9545 68.8455 70.7568 67.9 70.7568 66.8182C70.7568 65.7273 70.9545 64.775 71.35 63.9614C71.75 63.1477 72.3045 62.5159 73.0136 62.0659C73.7273 61.6159 74.5568 61.3909 75.5023 61.3909C76.4477 61.3909 77.275 61.6159 77.9841 62.0659C78.6977 62.5159 79.2523 63.1477 79.6477 63.9614C80.0477 64.775 80.2477 65.7273 80.2477 66.8182C80.2477 67.9 80.0477 68.8455 79.6477 69.6545C79.2523 70.4636 78.6977 71.0932 77.9841 71.5432C77.275 71.9932 76.4477 72.2182 75.5023 72.2182ZM75.5023 70.7727C76.2205 70.7727 76.8114 70.5886 77.275 70.2205C77.7386 69.8523 78.0818 69.3682 78.3045 68.7682C78.5273 68.1682 78.6386 67.5182 78.6386 66.8182C78.6386 66.1182 78.5273 65.4659 78.3045 64.8614C78.0818 64.2568 77.7386 63.7682 77.275 63.3955C76.8114 63.0227 76.2205 62.8364 75.5023 62.8364C74.7841 62.8364 74.1932 63.0227 73.7295 63.3955C73.2659 63.7682 72.9227 64.2568 72.7 64.8614C72.4773 65.4659 72.3659 66.1182 72.3659 66.8182C72.3659 67.5182 72.4773 68.1682 72.7 68.7682C72.9227 69.3682 73.2659 69.8523 73.7295 70.2205C74.1932 70.5886 74.7841 70.7727 75.5023 70.7727ZM89.304 67.7182V61.5273H90.9131V72H89.304V70.2273H89.1949C88.9494 70.7591 88.5676 71.2114 88.0494 71.5841C87.5313 71.9523 86.8767 72.1364 86.0858 72.1364C85.4313 72.1364 84.8494 71.9932 84.3403 71.7068C83.8313 71.4159 83.4313 70.9795 83.1403 70.3977C82.8494 69.8114 82.704 69.0727 82.704 68.1818V61.5273H84.3131V68.0727C84.3131 68.8364 84.5267 69.4455 84.954 69.9C85.3858 70.3545 85.9358 70.5818 86.604 70.5818C87.004 70.5818 87.4108 70.4795 87.8244 70.275C88.2426 70.0705 88.5926 69.7568 88.8744 69.3341C89.1608 68.9114 89.304 68.3727 89.304 67.7182ZM93.8602 72V61.5273H95.4148V63.1091H95.5239C95.7148 62.5909 96.0602 62.1705 96.5602 61.8477C97.0602 61.525 97.6239 61.3636 98.2511 61.3636C98.3693 61.3636 98.5171 61.3659 98.6943 61.3705C98.8716 61.375 99.0057 61.3818 99.0966 61.3909V63.0273C99.0421 63.0136 98.9171 62.9932 98.7216 62.9659C98.5307 62.9341 98.3284 62.9182 98.1148 62.9182C97.6057 62.9182 97.1511 63.025 96.7511 63.2386C96.3557 63.4477 96.0421 63.7386 95.8102 64.1114C95.583 64.4795 95.4693 64.9 95.4693 65.3727V72H93.8602ZM105.859 59.5364V58.0364H116.331V59.5364H111.94V72H110.249V59.5364H105.859ZM121.459 72.2182C120.513 72.2182 119.684 71.9932 118.97 71.5432C118.261 71.0932 117.706 70.4636 117.306 69.6545C116.911 68.8455 116.713 67.9 116.713 66.8182C116.713 65.7273 116.911 64.775 117.306 63.9614C117.706 63.1477 118.261 62.5159 118.97 62.0659C119.684 61.6159 120.513 61.3909 121.459 61.3909C122.404 61.3909 123.231 61.6159 123.94 62.0659C124.654 62.5159 125.209 63.1477 125.604 63.9614C126.004 64.775 126.204 65.7273 126.204 66.8182C126.204 67.9 126.004 68.8455 125.604 69.6545C125.209 70.4636 124.654 71.0932 123.94 71.5432C123.231 71.9932 122.404 72.2182 121.459 72.2182ZM121.459 70.7727C122.177 70.7727 122.768 70.5886 123.231 70.2205C123.695 69.8523 124.038 69.3682 124.261 68.7682C124.484 68.1682 124.595 67.5182 124.595 66.8182C124.595 66.1182 124.484 65.4659 124.261 64.8614C124.038 64.2568 123.695 63.7682 123.231 63.3955C122.768 63.0227 122.177 62.8364 121.459 62.8364C120.74 62.8364 120.149 63.0227 119.686 63.3955C119.222 63.7682 118.879 64.2568 118.656 64.8614C118.434 65.4659 118.322 66.1182 118.322 66.8182C118.322 67.5182 118.434 68.1682 118.656 68.7682C118.879 69.3682 119.222 69.8523 119.686 70.2205C120.149 70.5886 120.74 70.7727 121.459 70.7727ZM132.615 72.2182C131.742 72.2182 130.972 71.9977 130.303 71.5568C129.635 71.1114 129.113 70.4841 128.735 69.675C128.358 68.8614 128.169 67.9 128.169 66.7909C128.169 65.6909 128.358 64.7364 128.735 63.9273C129.113 63.1182 129.638 62.4932 130.31 62.0523C130.983 61.6114 131.76 61.3909 132.642 61.3909C133.324 61.3909 133.863 61.5045 134.258 61.7318C134.658 61.9545 134.963 62.2091 135.172 62.4955C135.385 62.7773 135.551 63.0091 135.669 63.1909H135.806V58.0364H137.415V72H135.86V70.3909H135.669C135.551 70.5818 135.383 70.8227 135.165 71.1136C134.947 71.4 134.635 71.6568 134.231 71.8841C133.826 72.1068 133.288 72.2182 132.615 72.2182ZM132.833 70.7727C133.478 70.7727 134.024 70.6045 134.469 70.2682C134.915 69.9273 135.253 69.4568 135.485 68.8568C135.717 68.2523 135.833 67.5545 135.833 66.7636C135.833 65.9818 135.719 65.2977 135.492 64.7114C135.265 64.1205 134.928 63.6614 134.483 63.3341C134.038 63.0023 133.488 62.8364 132.833 62.8364C132.151 62.8364 131.583 63.0114 131.128 63.3614C130.678 63.7068 130.34 64.1773 130.113 64.7727C129.89 65.3636 129.778 66.0273 129.778 66.7636C129.778 67.5091 129.892 68.1864 130.119 68.7955C130.351 69.4 130.692 69.8818 131.142 70.2409C131.597 70.5955 132.16 70.7727 132.833 70.7727ZM144.84 72.2182C143.894 72.2182 143.065 71.9932 142.351 71.5432C141.642 71.0932 141.088 70.4636 140.688 69.6545C140.292 68.8455 140.094 67.9 140.094 66.8182C140.094 65.7273 140.292 64.775 140.688 63.9614C141.088 63.1477 141.642 62.5159 142.351 62.0659C143.065 61.6159 143.894 61.3909 144.84 61.3909C145.785 61.3909 146.613 61.6159 147.322 62.0659C148.035 62.5159 148.59 63.1477 148.985 63.9614C149.385 64.775 149.585 65.7273 149.585 66.8182C149.585 67.9 149.385 68.8455 148.985 69.6545C148.59 70.4636 148.035 71.0932 147.322 71.5432C146.613 71.9932 145.785 72.2182 144.84 72.2182ZM144.84 70.7727C145.558 70.7727 146.149 70.5886 146.613 70.2205C147.076 69.8523 147.419 69.3682 147.642 68.7682C147.865 68.1682 147.976 67.5182 147.976 66.8182C147.976 66.1182 147.865 65.4659 147.642 64.8614C147.419 64.2568 147.076 63.7682 146.613 63.3955C146.149 63.0227 145.558 62.8364 144.84 62.8364C144.122 62.8364 143.531 63.0227 143.067 63.3955C142.603 63.7682 142.26 64.2568 142.038 64.8614C141.815 65.4659 141.703 66.1182 141.703 66.8182C141.703 67.5182 141.815 68.1682 142.038 68.7682C142.26 69.3682 142.603 69.8523 143.067 70.2205C143.531 70.5886 144.122 70.7727 144.84 70.7727ZM159.46 63.8727L158.014 64.2818C157.923 64.0409 157.789 63.8068 157.612 63.5795C157.439 63.3477 157.203 63.1568 156.903 63.0068C156.603 62.8568 156.219 62.7818 155.751 62.7818C155.11 62.7818 154.576 62.9295 154.148 63.225C153.726 63.5159 153.514 63.8864 153.514 64.3364C153.514 64.7364 153.66 65.0523 153.951 65.2841C154.241 65.5159 154.696 65.7091 155.314 65.8636L156.869 66.2455C157.805 66.4727 158.503 66.8205 158.962 67.2886C159.421 67.7523 159.651 68.35 159.651 69.0818C159.651 69.6818 159.478 70.2182 159.132 70.6909C158.791 71.1636 158.314 71.5364 157.701 71.8091C157.087 72.0818 156.373 72.2182 155.56 72.2182C154.491 72.2182 153.607 71.9864 152.907 71.5227C152.207 71.0591 151.764 70.3818 151.578 69.4909L153.105 69.1091C153.251 69.6727 153.526 70.0955 153.93 70.3773C154.339 70.6591 154.873 70.8 155.532 70.8C156.282 70.8 156.878 70.6409 157.319 70.3227C157.764 70 157.987 69.6136 157.987 69.1636C157.987 68.8 157.86 68.4955 157.605 68.25C157.351 68 156.96 67.8136 156.432 67.6909L154.687 67.2818C153.728 67.0545 153.023 66.7023 152.573 66.225C152.128 65.7432 151.905 65.1409 151.905 64.4182C151.905 63.8273 152.071 63.3045 152.403 62.85C152.739 62.3955 153.196 62.0386 153.773 61.7795C154.355 61.5205 155.014 61.3909 155.751 61.3909C156.787 61.3909 157.601 61.6182 158.191 62.0727C158.787 62.5273 159.21 63.1273 159.46 63.8727ZM163.245 72.1091C162.909 72.1091 162.62 71.9886 162.38 71.7477C162.139 71.5068 162.018 71.2182 162.018 70.8818C162.018 70.5455 162.139 70.2568 162.38 70.0159C162.62 69.775 162.909 69.6545 163.245 69.6545C163.582 69.6545 163.87 69.775 164.111 70.0159C164.352 70.2568 164.473 70.5455 164.473 70.8818C164.473 71.1045 164.416 71.3091 164.302 71.4955C164.193 71.6818 164.045 71.8318 163.859 71.9455C163.677 72.0545 163.473 72.1091 163.245 72.1091Z" fill="#1A1A1A"/>
</svg>
