<svg width="38" height="39" viewBox="0 0 38 39" fill="none" xmlns="http://www.w3.org/2000/svg">
<g clip-path="url(#clip0_78_11)">
<g clip-path="url(#clip1_78_11)">
<path d="M31.471 5.48228H24.9393V4.2947C24.9393 2.3302 23.341 0.731934 21.3766 0.731934H16.6262C14.6617 0.731934 13.0634 2.3302 13.0634 4.2947V5.48228H6.53171C4.89462 5.48228 3.56274 6.81416 3.56274 8.45125V12.6078C3.56274 13.2637 4.09449 13.7954 4.75033 13.7954H5.39935L6.42535 35.3414C6.51598 37.2442 8.07914 38.7347 9.98403 38.7347H28.0187C29.9237 38.7347 31.4869 37.2442 31.5774 35.3414L32.6034 13.7954H33.2524C33.9083 13.7954 34.44 13.2637 34.44 12.6078V8.45125C34.44 6.81416 33.1081 5.48228 31.471 5.48228ZM15.4386 4.2947C15.4386 3.63989 15.9714 3.10711 16.6262 3.10711H21.3766C22.0314 3.10711 22.5641 3.63989 22.5641 4.2947V5.48228H15.4386V4.2947ZM5.93792 8.45125C5.93792 8.12385 6.20431 7.85746 6.53171 7.85746H31.471C31.7984 7.85746 32.0648 8.12385 32.0648 8.45125V11.4202H5.93792V8.45125ZM29.2049 35.2284C29.1747 35.8627 28.6536 36.3595 28.0187 36.3595H9.98403C9.34904 36.3595 8.82799 35.8627 8.79785 35.2284L7.77719 13.7954H30.2256L29.2049 35.2284Z" fill="#484848"/>
<path d="M19.0014 33.9845C19.6572 33.9845 20.189 33.4527 20.189 32.7969V17.3582C20.189 16.7024 19.6572 16.1707 19.0014 16.1707C18.3455 16.1707 17.8138 16.7024 17.8138 17.3582V32.7969C17.8138 33.4527 18.3455 33.9845 19.0014 33.9845ZM24.9393 33.9845C25.5952 33.9845 26.1269 33.4527 26.1269 32.7969V17.3582C26.1269 16.7024 25.5952 16.1707 24.9393 16.1707C24.2835 16.1707 23.7517 16.7024 23.7517 17.3582V32.7969C23.7517 33.4527 24.2834 33.9845 24.9393 33.9845ZM13.0634 33.9845C13.7193 33.9845 14.251 33.4527 14.251 32.7969V17.3582C14.251 16.7024 13.7193 16.1707 13.0634 16.1707C12.4076 16.1707 11.8759 16.7024 11.8759 17.3582V32.7969C11.8759 33.4527 12.4075 33.9845 13.0634 33.9845Z" fill="#484848"/>
</g>
</g>
<defs>
<clipPath id="clip0_78_11">
<rect width="38.0028" height="38.0028" fill="white" transform="translate(0 0.731934)"/>
</clipPath>
<clipPath id="clip1_78_11">
<rect width="38.0028" height="38.0028" fill="white" transform="translate(0 0.731934)"/>
</clipPath>
</defs>
</svg>
