<svg width="38" height="38" viewBox="0 0 38 38" fill="none" xmlns="http://www.w3.org/2000/svg">
<g clip-path="url(#clip0_78_7)">
<g clip-path="url(#clip1_78_7)">
<path d="M36.5386 11.6428C35.5315 9.29756 34.1772 7.27448 32.4764 5.57373C30.7753 3.87288 28.7523 2.51884 26.407 1.51125C24.0619 0.503651 21.6016 0.000244141 19.0253 0.000244141C16.5978 0.000244141 14.2487 0.4581 11.9776 1.37485C9.70711 2.29143 7.68819 3.58361 5.92106 5.25174L2.70037 2.05578C2.20486 1.54378 1.63533 1.4283 0.991022 1.70881C0.330312 1.98992 0 2.47728 0 3.17079V14.2686C0 14.6979 0.156957 15.0695 0.470783 15.3832C0.784784 15.697 1.1564 15.854 1.58571 15.854H12.6835C13.3772 15.854 13.8643 15.5237 14.1451 14.8631C14.4257 14.219 14.3102 13.6494 13.7981 13.1537L10.4043 9.73538C11.5607 8.64536 12.8817 7.8073 14.368 7.22095C15.8544 6.63468 17.4066 6.34133 19.0251 6.34133C20.7424 6.34133 22.3817 6.67607 23.9424 7.34459C25.5033 8.01354 26.8528 8.91771 27.9924 10.0573C29.132 11.1966 30.0362 12.5465 30.7051 14.1073C31.3735 15.668 31.7081 17.3068 31.7081 19.0246C31.7081 20.7424 31.3736 22.3812 30.7051 23.9417C30.0362 25.5024 29.132 26.8522 27.9924 27.9918C26.8528 29.1314 25.5027 30.0358 23.9424 30.7045C22.3817 31.3732 20.7424 31.7076 19.0251 31.7076C17.0598 31.7076 15.2019 31.2782 13.4513 30.4197C11.7009 29.5613 10.2228 28.3475 9.01725 26.778C8.90176 26.613 8.71175 26.5137 8.44746 26.4805C8.19966 26.4805 7.99317 26.5546 7.82805 26.7031L4.43435 30.1218C4.30238 30.2545 4.23219 30.4236 4.22386 30.6296C4.21571 30.8366 4.26959 31.0221 4.38507 31.1873C6.18534 33.3672 8.36504 35.0558 10.9248 36.2527C13.4845 37.4499 16.1848 38.0488 19.0253 38.0488C21.6016 38.0488 24.0619 37.5449 26.407 36.5378C28.7523 35.5307 30.7747 34.176 32.4761 32.4754C34.1771 30.774 35.5311 28.7513 36.5385 26.4063C37.546 24.0612 38.0492 21.6002 38.0492 19.0244C38.0493 16.4476 37.5457 13.988 36.5386 11.6428Z" fill="#484848"/>
</g>
</g>
<defs>
<clipPath id="clip0_78_7">
<rect width="38.0028" height="38.0028" fill="white"/>
</clipPath>
<clipPath id="clip1_78_7">
<rect width="38.0028" height="38.0028" fill="white"/>
</clipPath>
</defs>
</svg>
